HIERARCHY
ROOT hips
{
  OFFSET 0 10.6860622 2.3727825e-15
  CHANNELS 6 Xposition Yposition Zposition Yrotation Xrotation Zrotation
  JOINT leftUpperLeg
  {
    OFFSET 0.6642549969 -0.9402397400000004 0
    CHANNELS 3 Yrotation Xrotation Zrotation
    JOINT leftLowerLeg
    {
      OFFSET 0 -3.997221335632195 0
      CHANNELS 3 Yrotation Xrotation Zrotation
      JOINT leftFoot
      {
        OFFSET -0.13777839790000004 -4.6145792000000005 -0.22186036399999998
        CHANNELS 3 Yrotation Xrotation Zrotation
        JOINT leftToes
        {
          OFFSET -0.03777410834999995 -0.9130806927000008 0.85230013
          CHANNELS 3 Yrotation Xrotation Zrotation
          End Site
          {
            OFFSET -0.03777410834999995 -0.9130806927000008 0.85230013
          }
        }
      }
    }
  }
  JOINT rightUpperLeg
  {
    OFFSET -0.6642778626 -0.9402397400000004 0
    CHANNELS 3 Yrotation Xrotation Zrotation
    JOINT rightLowerLeg
    {
      OFFSET 0 -3.997221452859387 0
      CHANNELS 3 Yrotation Xrotation Zrotation
      JOINT rightFoot
      {
        OFFSET 0.1377926176 -4.6145792000000005 -0.22185782299999995
        CHANNELS 3 Yrotation Xrotation Zrotation
        JOINT rightToes
        {
          OFFSET 0.037780746850000047 -0.9130806927000008 0.85230167
          CHANNELS 3 Yrotation Xrotation Zrotation
          End Site
          {
            OFFSET 0.037780746850000047 -0.9130806927000008 0.85230167
          }
        }
      }
    }
  }
  JOINT spine
  {
    OFFSET 0 0.13988381660000015 0
    CHANNELS 3 Yrotation Xrotation Zrotation
    JOINT chest
    {
      OFFSET 0 0.6191039003973773 0
      CHANNELS 3 Yrotation Xrotation Zrotation
      JOINT upperChest
      {
        OFFSET 0 0.9855186130586943 0
        CHANNELS 3 Yrotation Xrotation Zrotation
        JOINT leftShoulder
        {
          OFFSET 0.1807663869 1.5087829790000005 0
          CHANNELS 3 Yrotation Xrotation Zrotation
          JOINT leftUpperArm
          {
            OFFSET 0.5985063006419806 0 0
            CHANNELS 3 Yrotation Xrotation Zrotation
            JOINT leftLowerArm
            {
              OFFSET 2.2993332369501065 0 0
              CHANNELS 3 Yrotation Xrotation Zrotation
              JOINT leftHand
              {
                OFFSET 2.395047042602395 0 0
                CHANNELS 3 Yrotation Xrotation Zrotation
                JOINT leftIndexProximal
                {
                  OFFSET 0.5766295810000004 0.04556643899499946 0.17265095988184
                  CHANNELS 3 Yrotation Xrotation Zrotation
                  JOINT leftIndexIntermediate
                  {
                    OFFSET 0.2957229000000008 -0.019352197700001517 -0.007932640616999987
                    CHANNELS 3 Yrotation Xrotation Zrotation
                    JOINT leftIndexDistal
                    {
                      OFFSET 0.19008243099999922 -0.012484908149998475 -0.002786250786000012
                      CHANNELS 3 Yrotation Xrotation Zrotation
                      End Site
                      {
                        OFFSET 0.19008243099999922 -0.012484908149998475 -0.002786250786000012
                      }
                    }
                  }
                }
                JOINT leftMiddleProximal
                {
                  OFFSET 0.5834975091000001 0.0524350405149987 0.02204081888183999
                  CHANNELS 3 Yrotation Xrotation Zrotation
                  JOINT leftMiddleIntermediate
                  {
                    OFFSET 0.33880573540000003 -0.019871473270000717 -0.00000971183179999946
                    CHANNELS 3 Yrotation Xrotation Zrotation
                    JOINT leftMiddleDistal
                    {
                      OFFSET 0.20676022730000088 -0.012221336379999448 0.0001471936708000235
                      CHANNELS 3 Yrotation Xrotation Zrotation
                      End Site
                      {
                        OFFSET 0.20676022730000088 -0.012221336379999448 0.0001471936708000235
                      }
                    }
                  }
                }
                JOINT leftLittleProximal
                {
                  OFFSET 0.5344154683999995 -0.012880921405001189 -0.24414037221816004
                  CHANNELS 3 Yrotation Xrotation Zrotation
                  JOINT leftLittleIntermediate
                  {
                    OFFSET 0.21758961730000093 -0.011650919939999227 0.011893592810000034
                    CHANNELS 3 Yrotation Xrotation Zrotation
                    JOINT leftLittleDistal
                    {
                      OFFSET 0.1475273964999999 -0.008152365682999818 0.006001092492999946
                      CHANNELS 3 Yrotation Xrotation Zrotation
                      End Site
                      {
                        OFFSET 0.1475273964999999 -0.008152365682999818 0.006001092492999946
                      }
                    }
                  }
                }
                JOINT leftRingProximal
                {
                  OFFSET 0.5799399463000003 0.026911854694997794 -0.12150566991816003
                  CHANNELS 3 Yrotation Xrotation Zrotation
                  JOINT leftRingIntermediate
                  {
                    OFFSET 0.26167887460000006 -0.013480186499999602 0.010996293000000053
                    CHANNELS 3 Yrotation Xrotation Zrotation
                    JOINT leftRingDistal
                    {
                      OFFSET 0.17667108799999987 -0.008990287899999228 0.0055541023999999065
                      CHANNELS 3 Yrotation Xrotation Zrotation
                      End Site
                      {
                        OFFSET 0.17667108799999987 -0.008990287899999228 0.0055541023999999065
                      }
                    }
                  }
                }
                JOINT leftThumbProximal
                {
                  OFFSET 0.11018806699999972 -0.09448718900500053 0.17047963138184
                  CHANNELS 3 Yrotation Xrotation Zrotation
                  JOINT leftThumbIntermediate
                  {
                    OFFSET 0.31062601459999983 -0.08126270900000132 0.15443142000000007
                    CHANNELS 3 Yrotation Xrotation Zrotation
                    JOINT leftThumbDistal
                    {
                      OFFSET 0.21627175790000086 -0.08833193599999878 0.018771167799999988
                      CHANNELS 3 Yrotation Xrotation Zrotation
                      End Site
                      {
                        OFFSET 0.21627175790000086 -0.08833193599999878 0.018771167799999988
                      }
                    }
                  }
                }
              }
            }
          }
        }
        JOINT neck
        {
          OFFSET 0 1.5463305265074576 0
          CHANNELS 3 Yrotation Xrotation Zrotation
          JOINT head
          {
            OFFSET 0 0.8456443600000344 0
            CHANNELS 3 Yrotation Xrotation Zrotation
            JOINT leftEye
            {
              OFFSET 0.30408573140000006 0.5104519199999995 0.1276382305
              CHANNELS 3 Yrotation Xrotation Zrotation
              End Site
              {
                OFFSET 0.30408573140000006 0.5104519199999995 0.1276382305
              }
            }
            JOINT rightEye
            {
              OFFSET -0.30409491089999996 0.5104519199999995 0.1276379445
              CHANNELS 3 Yrotation Xrotation Zrotation
              End Site
              {
                OFFSET -0.30409491089999996 0.5104519199999995 0.1276379445
              }
            }
            JOINT jaw
            {
              OFFSET -3.155239131000001e-7 -0.11984121820000082 0.60178107
              CHANNELS 3 Yrotation Xrotation Zrotation
              End Site
              {
                OFFSET -3.155239131000001e-7 -0.11984121820000082 0.60178107
              }
            }
          }
        }
        JOINT rightShoulder
        {
          OFFSET -0.1807303465 1.5087829790000005 0
          CHANNELS 3 Yrotation Xrotation Zrotation
          JOINT rightUpperArm
          {
            OFFSET -0.5985063796536958 0 0
            CHANNELS 3 Yrotation Xrotation Zrotation
            JOINT rightLowerArm
            {
              OFFSET -2.2993322059002854 0 0
              CHANNELS 3 Yrotation Xrotation Zrotation
              JOINT rightHand
              {
                OFFSET -2.395045314457259 0 0
                CHANNELS 3 Yrotation Xrotation Zrotation
                JOINT rightIndexProximal
                {
                  OFFSET -0.5764487688300002 0.0441371204405987 0.17361932004999997
                  CHANNELS 3 Yrotation Xrotation Zrotation
                  JOINT rightIndexIntermediate
                  {
                    OFFSET -0.29573011380000047 -0.01934826376999843 -0.007698921482999974
                    CHANNELS 3 Yrotation Xrotation Zrotation
                    JOINT rightIndexDistal
                    {
                      OFFSET -0.19008373999999884 -0.012503266380000655 -0.0026365778999999897
                      CHANNELS 3 Yrotation Xrotation Zrotation
                      End Site
                      {
                        OFFSET -0.19008373999999884 -0.012503266380000655 -0.0026365778999999897
                      }
                    }
                  }
                }
                JOINT rightMiddleProximal
                {
                  OFFSET -0.5834852037300005 0.05211639405060153 0.02307162440000001
                  CHANNELS 3 Yrotation Xrotation Zrotation
                  JOINT rightMiddleIntermediate
                  {
                    OFFSET -0.33880114510000003 -0.019952774050000954 0.0002455003561999819
                    CHANNELS 3 Yrotation Xrotation Zrotation
                    JOINT rightMiddleDistal
                    {
                      OFFSET -0.20675694929999955 -0.012273788999999091 0.00030209124000002766
                      CHANNELS 3 Yrotation Xrotation Zrotation
                      End Site
                      {
                        OFFSET -0.20675694929999955 -0.012273788999999091 0.00030209124000002766
                      }
                    }
                  }
                }
                JOINT rightLittleProximal
                {
                  OFFSET -0.5346811737299992 -0.011214256288399227 -0.24363941305000003
                  CHANNELS 3 Yrotation Xrotation Zrotation
                  JOINT rightLittleIntermediate
                  {
                    OFFSET -0.21757715980000092 -0.011771559690000988 0.01201554387
                    CHANNELS 3 Yrotation Xrotation Zrotation
                    JOINT rightLittleDistal
                    {
                      OFFSET -0.1475201849000004 -0.00822055339600003 0.006082065407000015
                      CHANNELS 3 Yrotation Xrotation Zrotation
                      End Site
                      {
                        OFFSET -0.1475201849000004 -0.00822055339600003 0.006082065407000015
                      }
                    }
                  }
                }
                JOINT rightRingProximal
                {
                  OFFSET -0.5800810755299999 0.027657985680600072 -0.12066365025000003
                  CHANNELS 3 Yrotation Xrotation Zrotation
                  JOINT rightRingIntermediate
                  {
                    OFFSET -0.26166445029999974 -0.013623118409999302 0.011164098990000045
                    CHANNELS 3 Yrotation Xrotation Zrotation
                    JOINT rightRingDistal
                    {
                      OFFSET -0.17666387530000027 -0.009072900100000503 0.005668185599999959
                      CHANNELS 3 Yrotation Xrotation Zrotation
                      End Site
                      {
                        OFFSET -0.17666387530000027 -0.009072900100000503 0.005668185599999959
                      }
                    }
                  }
                }
                JOINT rightThumbProximal
                {
                  OFFSET -0.10997596379000074 -0.09577489355940072 0.16989765924999997
                  CHANNELS 3 Yrotation Xrotation Zrotation
                  JOINT rightThumbIntermediate
                  {
                    OFFSET -0.31036620999999986 -0.08229339117999834 0.15440884469999996
                    CHANNELS 3 Yrotation Xrotation Zrotation
                    JOINT rightThumbDistal
                    {
                      OFFSET -0.21631306399999906 -0.08825326400000111 0.018656797720000014
                      CHANNELS 3 Yrotation Xrotation Zrotation
                      End Site
                      {
                        OFFSET -0.21631306399999906 -0.08825326400000111 0.018656797720000014
                      }
                    }
                  }
                }
              }
            }
          }
        }
      }
    }
  }
}
MOTION
Frames: 4
Frame Time: 0.03333333333333333
-0.016846271231770515 -0.06963573210449248 -0.1917792707681656 1.6102546382714928 -5.106278540864152 1.3247119946632349 6.167676765721144 -0.4905457501866485 -1.2025733959749298 -2.48421804407115 9.877224802632243 -0.3343803727946264 -0.19497625508483973 -4.149690901690815 0.4669981291603817 0.000002981540598449733 -1.8685018944289926 -2.520043888388021e-7 -15.693337846556242 -4.502454670088828 -5.828555540731218 6.4559537717334425 11.65627121871446 0.44611379603620394 -0.36329325897071024 -2.9565217015350798 3.8002217634322224 -0.0000050487783863046515 -2.086600118484642 -5.754427751718893e-7 -2.714937508010019 5.716983754146039 -4.1192366496687125 -1.5952127826009965 5.563447776417691 0.5727879829385779 0 0 0 -3.345561329460977 0.7240062461828791 -3.6140004782292445 -16.470787810233542 6.092443967053633 -78.10865215292057 -18.927285346220266 0.04001986918977335 0.24007283375619104 5.334948966794049 -24.052496196432735 0.4366963228946385 3.53258352820648 0.20104553667488098 -13.2518326661823 0.9001829940615718 0.07965830747682809 -10.116486829312796 0.9001851282343449 0.07966978674140213 -10.116484307811044 3.7801863129986044 0.25740238773153185 -12.837184002854203 2.768473414781031 0.8118665473892296 -32.68460331829942 2.131988853209329 0.4644240650661936 -24.577783694946426 4.324719812311476 0.44747174577401005 -19.151309487369655 3.120808393941158 1.0593491640403823 -37.49369549891344 2.649617154439523 0.7378920835481669 -31.121016524722243 4.419912528053134 0.4901105231332861 -20.693045798567532 3.029552910020975 0.9909497688496829 -36.220437800344754 2.563258432790359 0.6869023791772836 -30.000767741184017 11.199676815428637 6.306636409838359 15.57934238809087 12.731227997230535 5.847134811816356 2.5007320788019882 -22.85636113261084 -11.452347078507028 11.290142688288425 1.4591875477866636 -5.4155849951032655 3.2543872888875423 -1.6579307205507101 3.2006235554194737 -1.0752370704366452 0 0 0 0 0 0 0 0 0 6.993413808828066 0.07110386832595136 11.238143187977219 -2.9980221761707475 1.2315233972566249 72.34815265722527 13.06329651010937 0.019156391464689816 -0.16728540914261544 5.719260627217349 -4.402928692799864 -17.68869493279615 -5.844588336465975 2.3297456230569296 65.22497401574222 -3.8700273875714863 3.264983972160594 80.299711852324 -3.870036772900291 3.2649833307892924 80.2997301303226 -5.844588336465975 2.3297456230569296 65.22497401574222 -3.8700273875714863 3.264983972160594 80.299711852324 -3.870037199506142 3.2649833307892924 80.2997301303226 -5.844592934705297 2.3297402825573306 65.22496494446959 -3.8700421230423285 3.265000647814587 80.299711852324 -3.8700273875714863 3.2649957306345345 80.29972085803527 -5.844588336465975 2.3297456230569296 65.22496494446959 -3.8700273875714863 3.264984185951028 80.299711852324 -3.870036772900291 3.2649833307892924 80.2997301303226 -5.63759322898501 13.564537045843181 1.1776504097129041 -14.560080216035331 6.178740420619881 -3.5228127494142845 -5.724998568760233 -5.49810351795277 -14.097920328350298
-0.018583407625555992 -0.06690536253662138 -0.18325768411159515 1.7845765355871905 -5.158579958764288 1.254365680927651 6.143145105473667 -0.32452149828136867 -1.0882693548276159 -2.634008507116842 9.711744546698945 -0.39325684662339244 -0.19568796564220486 -4.107315730438462 0.47576973921115157 0.0000012801512867412632 -1.8605798032253142 -2.3002272761989477e-7 -15.794575411570865 -4.207267910333171 -5.797156942641266 6.3403226307859155 11.361818454190024 0.4138087912796325 -0.3639087271253972 -2.8848315427279836 3.7999954469480555 -0.00000504361360859155 -2.086603322260126 -7.88901514449053e-7 -2.741985546347833 5.653728129547094 -4.069235628904696 -1.595597185727624 5.541430236245887 0.5570291611954004 0 0 0 -3.325176459480741 0.7416698132128097 -3.614949743865456 -16.352320642409406 6.250014344520873 -78.04941325789876 -19.06029758214378 0.04056398994124358 0.2416956587483366 5.451115431585657 -24.04487655235991 0.39002293503961977 3.532583954284803 0.20103625182932122 -13.25185583904138 0.9001858751948151 0.07966876621410403 -10.116496074818878 0.9001840611479587 0.0796655645598356 -10.116483467310452 3.780185461073875 0.2573919022181302 -12.837172348661925 2.768474907290961 0.8118826639847659 -32.6846402562154 2.1319839472480178 0.46441510014840487 -24.577782142056208 4.324722792101734 0.4474648886952981 -19.151320286332258 3.120803731557461 1.0593538605981718 -37.49371736539696 2.649620139700156 0.7378908027814856 -31.121008911836455 4.419911676787437 0.49010657428570237 -20.693067381539436 3.029554795955229 0.9909678075158828 -36.220445329679976 2.5632560870933947 0.6869023791772836 -30.000778550974264 11.199673444973074 6.306623095773468 15.579314065309728 12.731217951565716 5.847165279296688 2.5007105786943793 -22.85635606430702 -11.452364500856318 11.290149350288399 1.5132435777179187 -5.441473115287582 3.274649074521646 -1.2959268820375074 3.2375597362253714 -1.0424744504188104 0 0 0 0 0 0 0 0 0 6.967331927590612 0.08434033357789572 11.255397592669954 -3.0910146003446943 1.3735670275446175 72.40325713600853 13.236441522340058 0.01967157885623956 -0.16946308963006873 5.6238889432055155 -4.456327389611024 -17.82237808693171 -5.844588336465975 2.3297456230569296 65.22497401574222 -3.8700273875714863 3.264983972160594 80.299711852324 -3.870036772900291 3.2649833307892924 80.2997301303226 -5.844588336465975 2.3297456230569296 65.22497401574222 -3.8700273875714863 3.264983972160594 80.299711852324 -3.870037199506142 3.2649833307892924 80.2997301303226 -5.844592934705297 2.3297402825573306 65.22496494446959 -3.8700421230423285 3.265000647814587 80.299711852324 -3.8700273875714863 3.2649957306345345 80.29972085803527 -5.844588336465975 2.3297456230569296 65.22496494446959 -3.8700273875714863 3.264984185951028 80.299711852324 -3.870036772900291 3.2649833307892924 80.2997301303226 -5.63759322898501 13.564537045843181 1.1776504097129041 -14.560080216035331 6.178740420619881 -3.5228127494142845 -5.724998568760233 -5.49810351795277 -14.097920328350298
-0.023468906059861183 -0.061910016467285445 -0.16692589223384857 2.1424447286163124 -5.24021689540162 1.115710495861308 6.105616675513292 -0.04049518110422574 -0.8501272648481248 -2.9634410395014568 9.414252651374849 -0.5227574030618779 -0.2054768253942965 -4.031653075497503 0.49048413317837003 -8.255210271634914e-9 -1.8475868903558024 4.270731987437924e-7 -15.980353316331472 -3.6815142605627367 -5.721079708459589 6.094758394154475 10.848143523215914 0.3582125144104001 -0.3668904497989823 -2.740598167523354 3.797607280373511 -0.000007287504763558204 -2.0772367920990873 5.251503094579087e-7 -2.785145917397981 5.545674987604191 -3.979175275306603 -1.5963871592875145 5.504977752174318 0.5231994955543621 0 0 0 -3.3045197456699364 0.7759115409175178 -3.6167477435632422 -16.16645431418647 6.506172304374613 -77.9432248364019 -19.349963936686148 0.04181487537796444 0.24522930929275077 5.639627520825423 -24.043221793714185 0.3287749611687083 3.5325850194806083 0.2010361584472538 -13.251830173049102 0.9001816068492678 0.07966385034077948 -10.116491872316178 0.9001891831626073 0.07966457738310288 -10.116485148311634 3.7801875908856934 0.2573805629224765 -12.837175678431256 2.7684789583893243 0.8118888010989772 -32.6846402562154 2.1319845871560164 0.4644278004486088 -24.577785247836612 4.324722792101734 0.44746619607606375 -19.15131432664897 3.1208115913907593 1.059350338179829 -37.49372965367255 2.6496111839182124 0.7378869604814435 -31.121008911836455 4.419918912545798 0.4900947277429653 -20.693073380686286 3.029556501371179 0.9909696220562751 -36.220459651071984 2.5632565135837524 0.6869026993654108 -30.000772406642017 11.199676815428637 6.306628249604999 15.579320684613162 12.731226322953122 5.8471433942050135 2.5007046413130034 -22.856362486056376 -11.452356660799005 11.290129874389637 1.6221599127643418 -5.516991234544356 3.328149079186106 -0.5564922998834674 3.1839138223934134 -0.9239276927211769 0 0 0 0 0 0 0 0 0 6.935965163856788 0.11028800641861511 11.288638406212947 -3.2164592432261485 1.616611625512581 72.50100942945573 13.550517270167278 0.020598085069727583 -0.17339924972698548 5.481145343274379 -4.55068151943277 -18.086729971564065 -5.844588336465975 2.3297456230569296 65.22497401574222 -3.8700273875714863 3.264983972160594 80.299711852324 -3.870036772900291 3.2649833307892924 80.2997301303226 -5.844588336465975 2.3297456230569296 65.22497401574222 -3.8700273875714863 3.264983972160594 80.299711852324 -3.870037199506142 3.2649833307892924 80.2997301303226 -5.844592934705297 2.3297402825573306 65.22496494446959 -3.8700421230423285 3.265000647814587 80.299711852324 -3.8700273875714863 3.2649957306345345 80.29972085803527 -5.844588336465975 2.3297456230569296 65.22496494446959 -3.8700273875714863 3.264984185951028 80.299711852324 -3.870036772900291 3.2649833307892924 80.2997301303226 -5.63759322898501 13.564537045843181 1.1776504097129041 -14.560080216035331 6.178740420619881 -3.5228127494142845 -5.724998568760233 -5.49810351795277 -14.097920328350298
-0.030022334307432175 -0.05752216093750029 -0.15216311812400818 2.4964502539374362 -5.295570320250484 0.9795898016294761 6.0827876155268825 0.17997818184854686 -0.6015523389048998 -3.3085488496167614 9.16386125664009 -0.66117584280722 -0.21278216411766837 -3.9671996992921366 0.4983244478570128 4.171342952544042e-7 -1.8381074478976966 4.215762536078981e-7 -16.15203138809295 -3.215841161319138 -5.631939202722101 5.853480484737456 10.383583502513924 0.3210600981201928 -0.3694266672842537 -2.6029867173691095 3.77992459092382 0.000003389540814065631 -2.0598887595116335 -6.884140285890042e-7 -2.7993807723703523 5.468144979194345 -3.891352522616757 -1.5971805774801746 5.478211185869069 0.4883203709999597 0 0 0 -3.3020756205377655 0.8020135559421843 -3.6182159020788567 -16.07117004113115 6.691893079567969 -77.85855993467382 -19.70645548439475 0.043353649387935816 0.24959118113450596 5.788324636374896 -24.040776155570956 0.3007582845261722 3.5325875759505303 0.20102340512491318 -13.251842590522946 0.9001889697453306 0.0796666851388295 -10.116487669813372 0.9001858751948151 0.07967592991553052 -10.116493553317273 3.7801897206975017 0.25739027469569453 -12.837166595230906 2.768473414781031 0.8118671344175427 -32.684647849845675 2.131995252289254 0.4644324963579337 -24.57780361769979 4.324728325997865 0.44744317016587914 -19.15132947220186 3.1208069017980042 1.059368910931136 -37.493712576293056 2.6496158750421044 0.7378863734633818 -31.121016524722243 4.419920189444318 0.49009398066369425 -20.693058187500036 3.0295571409021593 0.9909620436817017 -36.2204521217368 2.5632539546416018 0.686898270096319 -30.00077536439014 11.19968187111183 6.306621807315594 15.579340733265193 12.731220543573752 5.8471356700552155 2.5007183600576393 -22.85635310542442 -11.452350562976799 11.29013499994929 1.7355616741961695 -5.6095849950305325 3.4017860096612003 0.23711899772350883 2.93779673119539 -0.749558737511828 0 0 0 0 0 0 0 0 0 6.921520483951324 0.12915240985302184 11.322449057496167 -3.2777120987263713 1.8153150495186208 72.57866791114759 13.841045142721182 0.021496970375177598 -0.17702981667675788 5.357097277231683 -4.644617154804445 -18.291188579670536 -5.844588336465975 2.3297456230569296 65.22497401574222 -3.8700273875714863 3.264983972160594 80.299711852324 -3.870036772900291 3.2649833307892924 80.2997301303226 -5.844588336465975 2.3297456230569296 65.22497401574222 -3.8700273875714863 3.264983972160594 80.299711852324 -3.870037199506142 3.2649833307892924 80.2997301303226 -5.844592934705297 2.3297402825573306 65.22496494446959 -3.8700421230423285 3.265000647814587 80.299711852324 -3.8700273875714863 3.2649957306345345 80.29972085803527 -5.844588336465975 2.3297456230569296 65.22496494446959 -3.8700273875714863 3.264984185951028 80.299711852324 -3.870036772900291 3.2649833307892924 80.2997301303226 -5.63759322898501 13.564537045843181 1.1776504097129041 -14.560080216035331 6.178740420619881 -3.5228127494142845 -5.724998568760233 -5.49810351795277 -14.097920328350298
